<svg width="86" height="30" viewBox="0 0 86 30" fill="none" xmlns="http://www.w3.org/2000/svg">
<path d="M8.77305 5.17188H10.8141C11.1494 5.17188 11.4326 5.05957 11.6637 4.83496C11.898 4.6071 12.0152 4.28646 12.0152 3.87305C12.0152 3.5638 11.8932 3.28711 11.649 3.04297C11.4049 2.79557 11.1266 2.67188 10.8141 2.67188H7.79649V9H7.44492V2.32031H10.8141C11.2242 2.32031 11.5855 2.47819 11.898 2.79395C12.2105 3.1097 12.3668 3.4694 12.3668 3.87305C12.3668 4.37109 12.2154 4.77148 11.9127 5.07422C11.61 5.3737 11.2438 5.52344 10.8141 5.52344H8.77305V5.17188ZM8.77305 5.875H10.8141C11.1526 5.875 11.4651 5.79362 11.7516 5.63086C12.0413 5.46484 12.274 5.22721 12.4498 4.91797C12.6288 4.60872 12.7184 4.26042 12.7184 3.87305C12.7184 3.37174 12.5263 2.92904 12.1422 2.54492C11.7613 2.16081 11.3186 1.96875 10.8141 1.96875H7.09336V9H6.7418V1.61719H10.8141C11.2079 1.61719 11.579 1.72135 11.9273 1.92969C12.2757 2.13802 12.5523 2.41634 12.7574 2.76465C12.9658 3.11296 13.0699 3.48242 13.0699 3.87305C13.0699 4.31576 12.9658 4.7194 12.7574 5.08398C12.5491 5.44531 12.2724 5.72689 11.9273 5.92871C11.5855 6.12728 11.2145 6.22656 10.8141 6.22656H8.77305V5.875ZM8.77305 6.57812H10.8141C11.1624 6.57812 11.496 6.50977 11.815 6.37305C12.1341 6.23307 12.4107 6.0459 12.6451 5.81152C12.8827 5.57389 13.0716 5.28743 13.2115 4.95215C13.3515 4.61361 13.4215 4.25391 13.4215 3.87305C13.4215 3.41732 13.3027 2.98926 13.065 2.58887C12.8274 2.18522 12.5068 1.86458 12.1031 1.62695C11.7027 1.38607 11.273 1.26562 10.8141 1.26562H6.39024V9H6.03867V0.914062H10.8141C11.3349 0.914062 11.8232 1.05078 12.2789 1.32422C12.7346 1.5944 13.0976 1.95736 13.3678 2.41309C13.638 2.86882 13.773 3.35547 13.773 3.87305C13.773 4.33529 13.6933 4.76172 13.5338 5.15234C13.3743 5.53971 13.1594 5.86198 12.8893 6.11914C12.6191 6.3763 12.3049 6.5765 11.9469 6.71973C11.5888 6.8597 11.2112 6.92969 10.8141 6.92969H8.77305V6.57812ZM8.49961 9H8.14805V3.02344H10.8141C11.0452 3.02344 11.2438 3.10807 11.4098 3.27734C11.579 3.44661 11.6637 3.64518 11.6637 3.87305C11.6637 4.50456 11.3805 4.82031 10.8141 4.82031H8.77305V4.46875H10.8141C10.9703 4.46875 11.0924 4.4248 11.1803 4.33691C11.2682 4.24902 11.3121 4.0944 11.3121 3.87305C11.3121 3.72982 11.2633 3.611 11.1656 3.5166C11.0712 3.4222 10.954 3.375 10.8141 3.375H8.49961V9ZM18.0301 4.49316C17.7566 4.7666 17.6199 5.09701 17.6199 5.48438C17.6199 5.87174 17.7566 6.20378 18.0301 6.48047C18.3068 6.75391 18.6388 6.89062 19.0262 6.89062C19.4135 6.89062 19.7439 6.75391 20.0174 6.48047C20.2941 6.20378 20.4324 5.87174 20.4324 5.48438C20.4324 5.09701 20.2941 4.7666 20.0174 4.49316C19.7439 4.21647 19.4135 4.07812 19.0262 4.07812C18.6388 4.07812 18.3068 4.21647 18.0301 4.49316ZM17.7811 6.72949C17.4393 6.38444 17.2684 5.9694 17.2684 5.48438C17.2684 4.99935 17.4393 4.58594 17.7811 4.24414C18.1261 3.89909 18.5411 3.72656 19.0262 3.72656C19.5112 3.72656 19.9246 3.89909 20.2664 4.24414C20.6115 4.58594 20.784 4.99935 20.784 5.48438C20.784 5.9694 20.6115 6.38444 20.2664 6.72949C19.9246 7.07129 19.5112 7.24219 19.0262 7.24219C18.5411 7.24219 18.1261 7.07129 17.7811 6.72949ZM17.532 3.99512C17.1219 4.40853 16.9168 4.90495 16.9168 5.48438C16.9168 6.0638 17.1219 6.56022 17.532 6.97363C17.9454 7.38704 18.4435 7.59375 19.0262 7.59375C19.6089 7.59375 20.1053 7.38704 20.5154 6.97363C20.9288 6.56022 21.1355 6.0638 21.1355 5.48438C21.1355 4.90495 20.9288 4.40853 20.5154 3.99512C20.1053 3.58171 19.6089 3.375 19.0262 3.375C18.4435 3.375 17.9454 3.58171 17.532 3.99512ZM16.8924 6.71973C16.6743 6.34212 16.5652 5.93034 16.5652 5.48438C16.5652 5.03841 16.6743 4.62663 16.8924 4.24902C17.1137 3.87142 17.4132 3.57357 17.7908 3.35547C18.1684 3.13411 18.5802 3.02344 19.0262 3.02344C19.4721 3.02344 19.8839 3.13411 20.2615 3.35547C20.6391 3.57357 20.937 3.87142 21.1551 4.24902C21.3764 4.62663 21.4871 5.03841 21.4871 5.48438C21.4871 5.93034 21.3764 6.34212 21.1551 6.71973C20.937 7.09733 20.6391 7.39681 20.2615 7.61816C19.8839 7.83626 19.4721 7.94531 19.0262 7.94531C18.5802 7.94531 18.1684 7.83626 17.7908 7.61816C17.4132 7.39681 17.1137 7.09733 16.8924 6.71973ZM16.4334 4.39551C16.2869 4.74056 16.2137 5.10352 16.2137 5.48438C16.2137 5.86523 16.2869 6.22982 16.4334 6.57812C16.5831 6.92318 16.7833 7.22266 17.034 7.47656C17.2879 7.72721 17.5874 7.92741 17.9324 8.07715C18.2807 8.22363 18.6453 8.29688 19.0262 8.29688C19.407 8.29688 19.77 8.22363 20.115 8.07715C20.4633 7.92741 20.7628 7.72721 21.0135 7.47656C21.2674 7.22266 21.4676 6.92318 21.6141 6.57812C21.7638 6.22982 21.8387 5.86523 21.8387 5.48438C21.8387 5.10352 21.7638 4.74056 21.6141 4.39551C21.4676 4.0472 21.2674 3.74772 21.0135 3.49707C20.7628 3.24316 20.4633 3.04297 20.115 2.89648C19.77 2.74674 19.407 2.67188 19.0262 2.67188C18.6453 2.67188 18.2807 2.74674 17.9324 2.89648C17.5874 3.04297 17.2879 3.24316 17.034 3.49707C16.7833 3.74772 16.5831 4.0472 16.4334 4.39551ZM16.1111 6.71484C15.9451 6.32422 15.8621 5.91406 15.8621 5.48438C15.8621 5.05469 15.9451 4.64453 16.1111 4.25391C16.2804 3.86328 16.505 3.52799 16.785 3.24805C17.0682 2.96484 17.4051 2.74023 17.7957 2.57422C18.1863 2.40495 18.5965 2.32031 19.0262 2.32031C19.4559 2.32031 19.866 2.40495 20.2566 2.57422C20.6473 2.74023 20.9826 2.96484 21.2625 3.24805C21.5457 3.52799 21.7703 3.86328 21.9363 4.25391C22.1056 4.64453 22.1902 5.05469 22.1902 5.48438C22.1902 5.91406 22.1056 6.32422 21.9363 6.71484C21.7703 7.10547 21.5457 7.44238 21.2625 7.72559C20.9826 8.00553 20.6473 8.23014 20.2566 8.39941C19.866 8.56543 19.4559 8.64844 19.0262 8.64844C18.5965 8.64844 18.1863 8.56543 17.7957 8.39941C17.4051 8.23014 17.0682 8.00553 16.785 7.72559C16.505 7.44238 16.2804 7.10547 16.1111 6.71484ZM15.7889 4.12207C15.6033 4.55501 15.5105 5.00911 15.5105 5.48438C15.5105 5.95964 15.6033 6.41536 15.7889 6.85156C15.9744 7.28451 16.2234 7.65885 16.5359 7.97461C16.8517 8.28711 17.226 8.53613 17.659 8.72168C18.0952 8.90723 18.5509 9 19.0262 9C19.5014 9 19.9555 8.90723 20.3885 8.72168C20.8247 8.53613 21.199 8.28711 21.5115 7.97461C21.8273 7.65885 22.0779 7.28451 22.2635 6.85156C22.449 6.41536 22.5418 5.95964 22.5418 5.48438C22.5418 5.00911 22.449 4.55501 22.2635 4.12207C22.0779 3.68587 21.8273 3.31152 21.5115 2.99902C21.199 2.68327 20.8247 2.43262 20.3885 2.24707C19.9555 2.06152 19.5014 1.96875 19.0262 1.96875C18.5509 1.96875 18.0952 2.06152 17.659 2.24707C17.226 2.43262 16.8517 2.68327 16.5359 2.99902C16.2234 3.31152 15.9744 3.68587 15.7889 4.12207ZM15.4666 6.98828C15.2615 6.50977 15.159 6.00846 15.159 5.48438C15.159 4.96029 15.2615 4.46061 15.4666 3.98535C15.6717 3.50684 15.9467 3.09505 16.2918 2.75C16.6369 2.40495 17.047 2.12988 17.5223 1.9248C18.0008 1.71973 18.5021 1.61719 19.0262 1.61719C19.5503 1.61719 20.0499 1.71973 20.5252 1.9248C21.0037 2.12988 21.4155 2.40495 21.7605 2.75C22.1056 3.09505 22.3807 3.50684 22.5857 3.98535C22.7908 4.46061 22.8934 4.96029 22.8934 5.48438C22.8934 6.00846 22.7908 6.50977 22.5857 6.98828C22.3807 7.46354 22.1056 7.8737 21.7605 8.21875C21.4155 8.5638 21.0037 8.83887 20.5252 9.04395C20.0499 9.24902 19.5503 9.35156 19.0262 9.35156C18.5021 9.35156 18.0008 9.24902 17.5223 9.04395C17.047 8.83887 16.6369 8.5638 16.2918 8.21875C15.9467 7.8737 15.6717 7.46354 15.4666 6.98828ZM31.8721 1.96875H31.4814L29.5234 5.51367L31.4522 9H31.8428L29.9141 5.51367L31.8721 1.96875ZM31.0859 1.96875H30.6953L28.7373 5.51367L30.666 9H31.0566L29.1279 5.51367L31.0859 1.96875ZM30.2998 1.96875H29.9092L27.9512 5.51367L29.8799 9H30.2705L28.3418 5.51367L30.2998 1.96875ZM29.5137 1.96875H29.123L27.1602 5.51367L29.0938 9H29.4844L27.5508 5.51367L29.5137 1.96875ZM26.5938 1.96875H26.9453V9H26.5938V1.96875ZM25.8906 1.96875H26.2422V9H25.8906V1.96875ZM25.1875 1.96875H25.5391V9H25.1875V1.96875ZM24.4844 1.96875H24.8359V9H24.4844V1.96875ZM35.0598 9H34.7082V1.96875H35.0598V9ZM34.3566 9H34.0051V1.96875H34.3566V9ZM33.6535 9H33.302V1.96875H33.6535V9ZM35.7629 7.24219H39.1272V7.59375H35.7629V7.94531H39.1272V8.29688H35.7629V8.64844H39.1272V9H35.4113V1.96875H39.1272V2.32031H35.7629V2.67188H39.1272V3.02344H35.7629V3.375H39.1272V3.72656H35.7629V4.60059H38.9318V4.95215H35.7629V5.30371H38.9318V5.65527H35.7629V6.00684H38.9318V6.3584H35.7629V7.24219ZM47.1961 4.97656H49.3152C49.6375 4.97656 49.9093 4.8724 50.1307 4.66406C50.3553 4.45573 50.4676 4.15951 50.4676 3.77539C50.4676 3.49219 50.3504 3.23828 50.116 3.01367C49.8816 2.78581 49.6147 2.67188 49.3152 2.67188H46.2977V9H45.9461V2.32031H49.3152C49.7124 2.32031 50.0623 2.46842 50.365 2.76465C50.6678 3.05762 50.8191 3.39453 50.8191 3.77539C50.8191 4.24414 50.6727 4.62012 50.3797 4.90332C50.0867 5.18652 49.7319 5.32812 49.3152 5.32812H47.1961V4.97656ZM47.1961 5.67969H49.3152C49.823 5.67969 50.2592 5.50228 50.6238 5.14746C50.9884 4.78939 51.1707 4.33203 51.1707 3.77539C51.1707 3.29688 50.9835 2.87695 50.6092 2.51562C50.2381 2.15104 49.8068 1.96875 49.3152 1.96875H45.5945V9H45.243V1.61719H49.3152C49.7026 1.61719 50.0656 1.71647 50.4041 1.91504C50.7459 2.11361 51.0177 2.38053 51.2195 2.71582C51.4214 3.04785 51.5223 3.40104 51.5223 3.77539C51.5223 4.41667 51.3042 4.95378 50.868 5.38672C50.435 5.81641 49.9174 6.03125 49.3152 6.03125H47.1961V5.67969ZM47.1961 6.38281H49.3152C49.771 6.38281 50.1941 6.27051 50.5848 6.0459C50.9754 5.82129 51.2879 5.50879 51.5223 5.1084C51.7566 4.70475 51.8738 4.26042 51.8738 3.77539C51.8738 3.33594 51.7566 2.92415 51.5223 2.54004C51.2911 2.15267 50.9786 1.84342 50.5848 1.6123C50.1909 1.38118 49.7677 1.26562 49.3152 1.26562H44.8914V9H44.5398V0.914062H49.3152C49.8263 0.914062 50.3064 1.0459 50.7557 1.30957C51.2049 1.56999 51.5613 1.92155 51.825 2.36426C52.0919 2.80371 52.2254 3.27409 52.2254 3.77539C52.2254 4.35482 52.1001 4.86426 51.8494 5.30371C51.602 5.74316 51.2651 6.08659 50.8387 6.33398L51.7469 9H51.3758L50.5066 6.5C50.3764 6.55208 50.2771 6.58789 50.2088 6.60742L51.0242 9H50.6531L49.8572 6.69043C49.8279 6.69694 49.7238 6.70833 49.5447 6.72461L50.3016 9H49.9305L49.1834 6.73438H48.866L49.5789 9H49.2078L48.49 6.73438H47.1961V6.38281ZM47.0008 9H46.6492V3.02344H49.3152C49.5333 3.02344 49.7205 3.09831 49.8768 3.24805C50.0363 3.39453 50.116 3.57031 50.116 3.77539C50.116 4.3418 49.8491 4.625 49.3152 4.625H47.1961V4.27344H49.3152C49.4552 4.27344 49.5643 4.23763 49.6424 4.16602C49.7238 4.09115 49.7645 3.96094 49.7645 3.77539C49.7645 3.66146 49.7205 3.56706 49.6326 3.49219C49.548 3.41406 49.4422 3.375 49.3152 3.375H47.0008V9ZM56.4629 4.49316C56.1895 4.7666 56.0527 5.09701 56.0527 5.48438C56.0527 5.87174 56.1895 6.20378 56.4629 6.48047C56.7396 6.75391 57.0716 6.89062 57.459 6.89062C57.8464 6.89062 58.1768 6.75391 58.4502 6.48047C58.7269 6.20378 58.8652 5.87174 58.8652 5.48438C58.8652 5.09701 58.7269 4.7666 58.4502 4.49316C58.1768 4.21647 57.8464 4.07812 57.459 4.07812C57.0716 4.07812 56.7396 4.21647 56.4629 4.49316ZM56.2139 6.72949C55.8721 6.38444 55.7012 5.9694 55.7012 5.48438C55.7012 4.99935 55.8721 4.58594 56.2139 4.24414C56.5589 3.89909 56.974 3.72656 57.459 3.72656C57.944 3.72656 58.3574 3.89909 58.6992 4.24414C59.0443 4.58594 59.2168 4.99935 59.2168 5.48438C59.2168 5.9694 59.0443 6.38444 58.6992 6.72949C58.3574 7.07129 57.944 7.24219 57.459 7.24219C56.974 7.24219 56.5589 7.07129 56.2139 6.72949ZM55.9648 3.99512C55.5547 4.40853 55.3496 4.90495 55.3496 5.48438C55.3496 6.0638 55.5547 6.56022 55.9648 6.97363C56.3783 7.38704 56.8763 7.59375 57.459 7.59375C58.0417 7.59375 58.5381 7.38704 58.9482 6.97363C59.3617 6.56022 59.5684 6.0638 59.5684 5.48438C59.5684 4.90495 59.3617 4.40853 58.9482 3.99512C58.5381 3.58171 58.0417 3.375 57.459 3.375C56.8763 3.375 56.3783 3.58171 55.9648 3.99512ZM55.3252 6.71973C55.1071 6.34212 54.998 5.93034 54.998 5.48438C54.998 5.03841 55.1071 4.62663 55.3252 4.24902C55.5465 3.87142 55.846 3.57357 56.2236 3.35547C56.6012 3.13411 57.013 3.02344 57.459 3.02344C57.9049 3.02344 58.3167 3.13411 58.6943 3.35547C59.0719 3.57357 59.3698 3.87142 59.5879 4.24902C59.8092 4.62663 59.9199 5.03841 59.9199 5.48438C59.9199 5.93034 59.8092 6.34212 59.5879 6.71973C59.3698 7.09733 59.0719 7.39681 58.6943 7.61816C58.3167 7.83626 57.9049 7.94531 57.459 7.94531C57.013 7.94531 56.6012 7.83626 56.2236 7.61816C55.846 7.39681 55.5465 7.09733 55.3252 6.71973ZM54.8662 4.39551C54.7197 4.74056 54.6465 5.10352 54.6465 5.48438C54.6465 5.86523 54.7197 6.22982 54.8662 6.57812C55.016 6.92318 55.2161 7.22266 55.4668 7.47656C55.7207 7.72721 56.0202 7.92741 56.3652 8.07715C56.7135 8.22363 57.0781 8.29688 57.459 8.29688C57.8398 8.29688 58.2028 8.22363 58.5479 8.07715C58.8962 7.92741 59.1956 7.72721 59.4463 7.47656C59.7002 7.22266 59.9004 6.92318 60.0469 6.57812C60.1966 6.22982 60.2715 5.86523 60.2715 5.48438C60.2715 5.10352 60.1966 4.74056 60.0469 4.39551C59.9004 4.0472 59.7002 3.74772 59.4463 3.49707C59.1956 3.24316 58.8962 3.04297 58.5479 2.89648C58.2028 2.74674 57.8398 2.67188 57.459 2.67188C57.0781 2.67188 56.7135 2.74674 56.3652 2.89648C56.0202 3.04297 55.7207 3.24316 55.4668 3.49707C55.2161 3.74772 55.016 4.0472 54.8662 4.39551ZM54.5439 6.71484C54.3779 6.32422 54.2949 5.91406 54.2949 5.48438C54.2949 5.05469 54.3779 4.64453 54.5439 4.25391C54.7132 3.86328 54.9378 3.52799 55.2178 3.24805C55.501 2.96484 55.8379 2.74023 56.2285 2.57422C56.6191 2.40495 57.0293 2.32031 57.459 2.32031C57.8887 2.32031 58.2988 2.40495 58.6895 2.57422C59.0801 2.74023 59.4154 2.96484 59.6953 3.24805C59.9785 3.52799 60.2031 3.86328 60.3691 4.25391C60.5384 4.64453 60.623 5.05469 60.623 5.48438C60.623 5.91406 60.5384 6.32422 60.3691 6.71484C60.2031 7.10547 59.9785 7.44238 59.6953 7.72559C59.4154 8.00553 59.0801 8.23014 58.6895 8.39941C58.2988 8.56543 57.8887 8.64844 57.459 8.64844C57.0293 8.64844 56.6191 8.56543 56.2285 8.39941C55.8379 8.23014 55.501 8.00553 55.2178 7.72559C54.9378 7.44238 54.7132 7.10547 54.5439 6.71484ZM54.2217 4.12207C54.0361 4.55501 53.9434 5.00911 53.9434 5.48438C53.9434 5.95964 54.0361 6.41536 54.2217 6.85156C54.4072 7.28451 54.6562 7.65885 54.9688 7.97461C55.2845 8.28711 55.6589 8.53613 56.0918 8.72168C56.528 8.90723 56.9837 9 57.459 9C57.9342 9 58.3883 8.90723 58.8213 8.72168C59.2575 8.53613 59.6318 8.28711 59.9443 7.97461C60.2601 7.65885 60.5107 7.28451 60.6963 6.85156C60.8818 6.41536 60.9746 5.95964 60.9746 5.48438C60.9746 5.00911 60.8818 4.55501 60.6963 4.12207C60.5107 3.68587 60.2601 3.31152 59.9443 2.99902C59.6318 2.68327 59.2575 2.43262 58.8213 2.24707C58.3883 2.06152 57.9342 1.96875 57.459 1.96875C56.9837 1.96875 56.528 2.06152 56.0918 2.24707C55.6589 2.43262 55.2845 2.68327 54.9688 2.99902C54.6562 3.31152 54.4072 3.68587 54.2217 4.12207ZM53.8994 6.98828C53.6943 6.50977 53.5918 6.00846 53.5918 5.48438C53.5918 4.96029 53.6943 4.46061 53.8994 3.98535C54.1045 3.50684 54.3796 3.09505 54.7246 2.75C55.0697 2.40495 55.4798 2.12988 55.9551 1.9248C56.4336 1.71973 56.9349 1.61719 57.459 1.61719C57.9831 1.61719 58.4827 1.71973 58.958 1.9248C59.4365 2.12988 59.8483 2.40495 60.1934 2.75C60.5384 3.09505 60.8135 3.50684 61.0186 3.98535C61.2236 4.46061 61.3262 4.96029 61.3262 5.48438C61.3262 6.00846 61.2236 6.50977 61.0186 6.98828C60.8135 7.46354 60.5384 7.8737 60.1934 8.21875C59.8483 8.5638 59.4365 8.83887 58.958 9.04395C58.4827 9.24902 57.9831 9.35156 57.459 9.35156C56.9349 9.35156 56.4336 9.24902 55.9551 9.04395C55.4798 8.83887 55.0697 8.5638 54.7246 8.21875C54.3796 7.8737 54.1045 7.46354 53.8994 6.98828ZM68.7375 4.39062L68.4543 4.60547C68.1711 4.25391 67.8065 4.07812 67.3605 4.07812C66.9732 4.07812 66.6411 4.21647 66.3645 4.49316C66.091 4.7666 65.9543 5.09701 65.9543 5.48438C65.9543 5.87174 66.091 6.20378 66.3645 6.48047C66.6411 6.75391 66.9732 6.89062 67.3605 6.89062C67.5786 6.89062 67.7821 6.84342 67.9709 6.74902C68.163 6.65462 68.3257 6.52441 68.4592 6.3584L68.7326 6.58789C68.5699 6.79297 68.368 6.9541 68.1272 7.07129C67.8863 7.18522 67.6307 7.24219 67.3605 7.24219C66.8755 7.24219 66.4605 7.07129 66.1154 6.72949C65.7736 6.38444 65.6027 5.9694 65.6027 5.48438C65.6027 4.99935 65.7736 4.58594 66.1154 4.24414C66.4605 3.89909 66.8755 3.72656 67.3605 3.72656C67.634 3.72656 67.8911 3.78678 68.132 3.90723C68.3729 4.02441 68.5747 4.18555 68.7375 4.39062ZM69.2844 3.95117L69.0061 4.16602C68.8107 3.91862 68.5682 3.72493 68.2785 3.58496C67.9921 3.44499 67.6861 3.375 67.3605 3.375C66.7779 3.375 66.2798 3.58171 65.8664 3.99512C65.4563 4.40853 65.2512 4.90495 65.2512 5.48438C65.2512 6.0638 65.4563 6.56022 65.8664 6.97363C66.2798 7.38704 66.7779 7.59375 67.3605 7.59375C67.6861 7.59375 67.9937 7.52376 68.2834 7.38379C68.5731 7.24056 68.8156 7.04525 69.0109 6.79785L69.2795 7.02246C69.0516 7.30892 68.7701 7.53516 68.4348 7.70117C68.0995 7.86393 67.7414 7.94531 67.3605 7.94531C66.9146 7.94531 66.5028 7.83626 66.1252 7.61816C65.7476 7.39681 65.4481 7.09733 65.2268 6.71973C65.0087 6.34212 64.8996 5.93034 64.8996 5.48438C64.8996 5.03841 65.0087 4.62663 65.2268 4.24902C65.4481 3.87142 65.7476 3.57357 66.1252 3.35547C66.5028 3.13411 66.9146 3.02344 67.3605 3.02344C67.7414 3.02344 68.0995 3.10645 68.4348 3.27246C68.7733 3.43522 69.0565 3.66146 69.2844 3.95117ZM69.8361 3.51172L69.5627 3.73145C69.299 3.40267 68.9751 3.14388 68.591 2.95508C68.2069 2.76628 67.7967 2.67188 67.3605 2.67188C66.9797 2.67188 66.6151 2.74674 66.2668 2.89648C65.9217 3.04297 65.6223 3.24316 65.3684 3.49707C65.1177 3.74772 64.9175 4.0472 64.7678 4.39551C64.6213 4.74056 64.548 5.10352 64.548 5.48438C64.548 5.86523 64.6213 6.22982 64.7678 6.57812C64.9175 6.92318 65.1177 7.22266 65.3684 7.47656C65.6223 7.72721 65.9217 7.92741 66.2668 8.07715C66.6151 8.22363 66.9797 8.29688 67.3605 8.29688C67.7967 8.29688 68.2069 8.20247 68.591 8.01367C68.9751 7.82487 69.299 7.56608 69.5627 7.2373L69.8264 7.4668C69.5301 7.83464 69.1672 8.12435 68.7375 8.33594C68.3078 8.54427 67.8488 8.64844 67.3605 8.64844C66.9309 8.64844 66.5207 8.56543 66.1301 8.39941C65.7395 8.23014 65.4025 8.00553 65.1193 7.72559C64.8394 7.44238 64.6148 7.10547 64.4455 6.71484C64.2795 6.32422 64.1965 5.91406 64.1965 5.48438C64.1965 5.05469 64.2795 4.64453 64.4455 4.25391C64.6148 3.86328 64.8394 3.52799 65.1193 3.24805C65.4025 2.96484 65.7395 2.74023 66.1301 2.57422C66.5207 2.40495 66.9309 2.32031 67.3605 2.32031C67.8521 2.32031 68.3127 2.42611 68.7424 2.6377C69.1753 2.84928 69.5399 3.14062 69.8361 3.51172ZM70.383 3.07227L70.0998 3.28223C69.771 2.87533 69.3674 2.55469 68.8889 2.32031C68.4136 2.08594 67.9042 1.96875 67.3605 1.96875C66.8853 1.96875 66.4296 2.06152 65.9934 2.24707C65.5604 2.43262 65.1861 2.68327 64.8703 2.99902C64.5578 3.31152 64.3088 3.68587 64.1232 4.12207C63.9377 4.55501 63.8449 5.00911 63.8449 5.48438C63.8449 5.95964 63.9377 6.41536 64.1232 6.85156C64.3088 7.28451 64.5578 7.65885 64.8703 7.97461C65.1861 8.28711 65.5604 8.53613 65.9934 8.72168C66.4296 8.90723 66.8853 9 67.3605 9C67.9042 9 68.4136 8.88281 68.8889 8.64844C69.3674 8.41406 69.771 8.09342 70.0998 7.68652L70.3781 7.90137C70.0168 8.35059 69.5725 8.7054 69.0451 8.96582C68.521 9.22298 67.9595 9.35156 67.3605 9.35156C66.8365 9.35156 66.3352 9.24902 65.8566 9.04395C65.3814 8.83887 64.9712 8.5638 64.6262 8.21875C64.2811 7.8737 64.0061 7.46354 63.801 6.98828C63.5959 6.50977 63.4934 6.00846 63.4934 5.48438C63.4934 4.96029 63.5959 4.46061 63.801 3.98535C64.0061 3.50684 64.2811 3.09505 64.6262 2.75C64.9712 2.40495 65.3814 2.12988 65.8566 1.9248C66.3352 1.71973 66.8365 1.61719 67.3605 1.61719C67.9595 1.61719 68.5227 1.7474 69.05 2.00781C69.5773 2.26497 70.0217 2.61979 70.383 3.07227ZM79.2396 1.96875H78.849L76.891 5.51367L78.8197 9H79.2104L77.2816 5.51367L79.2396 1.96875ZM78.4535 1.96875H78.0629L76.1049 5.51367L78.0336 9H78.4242L76.4955 5.51367L78.4535 1.96875ZM77.6674 1.96875H77.2768L75.3187 5.51367L77.2475 9H77.6381L75.7094 5.51367L77.6674 1.96875ZM76.8812 1.96875H76.4906L74.5277 5.51367L76.4613 9H76.852L74.9184 5.51367L76.8812 1.96875ZM73.9613 1.96875H74.3129V9H73.9613V1.96875ZM73.2582 1.96875H73.6098V9H73.2582V1.96875ZM72.5551 1.96875H72.9066V9H72.5551V1.96875ZM71.852 1.96875H72.2035V9H71.852V1.96875ZM10.9699 23.3652C10.9699 23.1113 10.8918 22.9421 10.7355 22.8574C10.5858 22.7728 10.3645 22.7305 10.0715 22.7305H5.54023V22.0273H10.0715C11.1392 22.0273 11.673 22.4733 11.673 23.3652C11.673 23.8665 11.5266 24.2279 11.2336 24.4492C10.9406 24.6706 10.5533 24.7812 10.0715 24.7812H5.54023V24.0781H10.0715C10.6704 24.0781 10.9699 23.8405 10.9699 23.3652ZM5.14961 29H4.44648V17.0469H10.0715C10.5142 17.0469 10.8918 17.1836 11.2043 17.457C11.5168 17.724 11.673 18.0592 11.673 18.4629C11.673 18.9967 11.5266 19.3841 11.2336 19.625C10.9406 19.8594 10.5533 19.9766 10.0715 19.9766H5.54023V19.2734H10.0715C10.6704 19.2734 10.9699 19.0033 10.9699 18.4629C10.9699 18.2415 10.8853 18.069 10.716 17.9453C10.5467 17.8151 10.3319 17.75 10.0715 17.75H5.14961V29ZM5.54023 20.6797H10.0715C10.716 20.6797 11.2596 20.4876 11.7023 20.1035C12.1516 19.7129 12.3762 19.166 12.3762 18.4629C12.3762 17.8965 12.1418 17.4017 11.673 16.9785C11.2108 16.5553 10.677 16.3438 10.0715 16.3438H3.74336V29H3.04023V15.6406H10.0715C10.8723 15.6406 11.5721 15.9238 12.1711 16.4902C12.7766 17.0501 13.0793 17.7077 13.0793 18.4629C13.0793 19.0553 12.9393 19.5729 12.6594 20.0156C12.3859 20.4583 12.0148 20.8001 11.5461 21.041C12.5682 21.4056 13.0793 22.1478 13.0793 23.2676C13.0793 24.153 12.7863 24.8626 12.2004 25.3965C11.6145 25.9238 10.9048 26.1875 10.0715 26.1875H5.54023V25.4844H10.0715C10.716 25.4844 11.2596 25.2923 11.7023 24.9082C12.1516 24.5176 12.3762 23.9707 12.3762 23.2676C12.3762 22.7923 12.2069 22.3724 11.8684 22.0078C11.5298 21.6432 11.0318 21.4316 10.3742 21.373C10.3091 21.3796 10.2082 21.3828 10.0715 21.3828H5.54023V20.6797ZM14.4855 18.4629C14.4855 19.3743 14.1633 20.1979 13.5187 20.9336C14.1633 21.6497 14.4855 22.4277 14.4855 23.2676C14.4855 24.0814 14.2805 24.8236 13.8703 25.4941C13.4667 26.1582 12.9263 26.6758 12.2492 27.0469C11.5786 27.4115 10.8527 27.5938 10.0715 27.5938H5.54023V26.8906H10.0715C11.0871 26.8906 11.9595 26.5521 12.6887 25.875C13.4178 25.1914 13.7824 24.3223 13.7824 23.2676C13.7824 22.89 13.6848 22.4733 13.4895 22.0176C13.3007 21.5553 13.037 21.2038 12.6984 20.9629C13.4211 20.2858 13.7824 19.4525 13.7824 18.4629C13.7824 17.5124 13.4113 16.6888 12.6691 15.9922C11.927 15.2891 11.0611 14.9375 10.0715 14.9375H2.33711V29H1.63398V14.2344H10.0715C10.8462 14.2344 11.5721 14.4264 12.2492 14.8105C12.9328 15.1882 13.4764 15.7057 13.8801 16.3633C14.2837 17.0143 14.4855 17.7142 14.4855 18.4629ZM14.3195 20.9727C14.899 20.1979 15.1887 19.3613 15.1887 18.4629C15.1887 17.584 14.9543 16.7669 14.4855 16.0117C14.0233 15.25 13.3983 14.6478 12.6105 14.2051C11.8228 13.7559 10.9764 13.5312 10.0715 13.5312H0.930859V29H0.227734V12.8281H10.0715C11.1001 12.8281 12.0604 13.082 12.9523 13.5898C13.8508 14.0977 14.5637 14.7878 15.091 15.6602C15.6249 16.526 15.8918 17.4603 15.8918 18.4629C15.8918 19.4199 15.6216 20.2598 15.0812 20.9824C15.6216 21.7311 15.8918 22.4928 15.8918 23.2676C15.8918 24.14 15.7355 24.9408 15.423 25.6699C15.1105 26.3926 14.6874 26.9948 14.1535 27.4766C13.6262 27.9583 13.0109 28.3327 12.3078 28.5996C11.6047 28.8665 10.8592 29 10.0715 29H5.54023V28.2969H10.0715C10.7551 28.2969 11.4094 28.1699 12.0344 27.916C12.6594 27.6556 13.203 27.304 13.6652 26.8613C14.1275 26.4186 14.4953 25.8848 14.7687 25.2598C15.0487 24.6348 15.1887 23.9707 15.1887 23.2676C15.1887 22.9551 15.1138 22.5807 14.9641 22.1445C14.8208 21.7018 14.606 21.3112 14.3195 20.9727ZM29.0543 22.0664C29.0543 21.2331 28.7971 20.5885 28.2828 20.1328C27.7685 19.6771 27.0882 19.4492 26.2418 19.4492C25.5257 19.4492 24.9104 19.6966 24.3961 20.1914C23.8818 20.6862 23.6246 21.2786 23.6246 21.9688C23.6246 22.3594 23.6767 22.7109 23.7809 23.0234C23.885 23.3294 24.025 23.5866 24.2008 23.7949C24.3831 23.9967 24.5979 24.166 24.8453 24.3027C25.0927 24.4329 25.3499 24.5273 25.6168 24.5859C25.8902 24.6445 26.1799 24.6738 26.4859 24.6738C27.2281 24.6738 27.9052 24.4915 28.5172 24.127V24.8301C27.8857 25.1621 27.2053 25.3281 26.4762 25.3281C26.0074 25.3281 25.5647 25.2663 25.148 25.1426C24.7379 25.0124 24.3635 24.8203 24.025 24.5664C23.6865 24.306 23.4163 23.9544 23.2145 23.5117C23.0191 23.0625 22.9215 22.5482 22.9215 21.9688C22.9215 21.0703 23.2372 20.3086 23.8687 19.6836C24.5003 19.0586 25.2913 18.7461 26.2418 18.7461C27.29 18.7461 28.1363 19.0423 28.7809 19.6348C29.4319 20.2207 29.7574 21.0312 29.7574 22.0664V29H29.0543V22.0664ZM31.1637 22.0664V29H30.4605V22.0664C30.4605 20.8359 30.0667 19.8594 29.2789 19.1367C28.4911 18.4076 27.4788 18.043 26.2418 18.043C25.096 18.043 24.1389 18.4238 23.3707 19.1855C22.6025 19.9473 22.2184 20.875 22.2184 21.9688C22.2184 22.6328 22.3323 23.2285 22.5602 23.7559C22.7945 24.2832 23.1103 24.7064 23.5074 25.0254C23.9046 25.3444 24.3473 25.5885 24.8355 25.7578C25.3303 25.9206 25.8512 26.002 26.398 26.002C27.1402 26.002 27.8466 25.8294 28.5172 25.4844V26.2266C27.8141 26.5195 27.1044 26.666 26.3883 26.666C25.7437 26.666 25.1318 26.5684 24.5523 26.373C23.9729 26.1712 23.4553 25.8815 22.9996 25.5039C22.5439 25.1198 22.1826 24.625 21.9156 24.0195C21.6487 23.4076 21.5152 22.724 21.5152 21.9688C21.5152 20.6862 21.9677 19.5957 22.8727 18.6973C23.7841 17.7923 24.9072 17.3398 26.2418 17.3398C27.1793 17.3398 28.0191 17.5319 28.7613 17.916C29.5035 18.2936 30.0895 18.8438 30.5191 19.5664C30.9488 20.2891 31.1637 21.1224 31.1637 22.0664ZM32.5699 22.0664V29H31.8668V22.0664C31.8668 20.9922 31.6194 20.0417 31.1246 19.2148C30.6363 18.3815 29.9658 17.7435 29.1129 17.3008C28.26 16.8581 27.303 16.6367 26.2418 16.6367C25.2327 16.6367 24.3115 16.8776 23.4781 17.3594C22.6448 17.8346 21.9905 18.4792 21.5152 19.293C21.0465 20.1068 20.8121 20.9987 20.8121 21.9688C20.8121 22.8021 20.9651 23.5638 21.2711 24.2539C21.5771 24.9375 21.9872 25.5007 22.5016 25.9434C23.0224 26.3861 23.6116 26.7311 24.2691 26.9785C24.9332 27.2194 25.6266 27.3398 26.3492 27.3398C27.0849 27.3398 27.8076 27.1868 28.5172 26.8809V27.5938C27.775 27.8737 27.0458 28.0137 26.3297 28.0137C25.2034 28.0137 24.1682 27.7598 23.2242 27.252C22.2802 26.7441 21.525 26.0247 20.9586 25.0938C20.3922 24.1628 20.109 23.1211 20.109 21.9688C20.109 21.1484 20.2652 20.3672 20.5777 19.625C20.8967 18.8828 21.3264 18.2415 21.8668 17.7012C22.4072 17.1608 23.0582 16.7311 23.8199 16.4121C24.5816 16.0931 25.3889 15.9336 26.2418 15.9336C27.4332 15.9336 28.5074 16.1875 29.4645 16.6953C30.428 17.2031 31.1865 17.9258 31.7398 18.8633C32.2932 19.8008 32.5699 20.8685 32.5699 22.0664ZM33.9762 22.0664V29H33.273V22.0664C33.273 20.7383 32.9638 19.5534 32.3453 18.5117C31.7268 17.4635 30.8837 16.6562 29.816 16.0898C28.7483 15.5169 27.5569 15.2305 26.2418 15.2305C24.9788 15.2305 23.8232 15.5332 22.775 16.1387C21.7268 16.7441 20.9033 17.5645 20.3043 18.5996C19.7053 19.6283 19.4059 20.7513 19.4059 21.9688C19.4059 22.7695 19.5328 23.5312 19.7867 24.2539C20.0471 24.9701 20.3987 25.5983 20.8414 26.1387C21.2906 26.6725 21.8049 27.1348 22.3844 27.5254C22.9703 27.916 23.5986 28.2122 24.2691 28.4141C24.9462 28.6159 25.6331 28.7168 26.3297 28.7168C27.0979 28.7168 27.8271 28.5703 28.5172 28.2773V29C27.7945 29.2539 27.0523 29.3809 26.2906 29.3809C25.5029 29.3809 24.7346 29.2702 23.9859 29.0488C23.2437 28.8275 22.5536 28.502 21.9156 28.0723C21.2841 27.6361 20.7275 27.125 20.2457 26.5391C19.7639 25.9466 19.3863 25.2565 19.1129 24.4688C18.8395 23.681 18.7027 22.8477 18.7027 21.9688C18.7027 20.9596 18.8915 19.9993 19.2691 19.0879C19.6533 18.1699 20.1741 17.3789 20.8316 16.7148C21.4957 16.0443 22.2965 15.5137 23.234 15.123C24.178 14.7259 25.1806 14.5273 26.2418 14.5273C27.3225 14.5273 28.3382 14.7096 29.2887 15.0742C30.2392 15.4388 31.0595 15.9466 31.7496 16.5977C32.4397 17.2422 32.9833 18.0365 33.3805 18.9805C33.7776 19.9245 33.9762 20.9531 33.9762 22.0664ZM48.4082 23.3262L47.7051 22.0469V14.9375H48.4082V23.3262ZM49.8145 25.7578L49.1113 24.5664V14.9375H49.8145V25.7578ZM40.127 20.6113L40.8301 21.8906V29H40.127V20.6113ZM38.7207 18.082L39.4238 19.3711V29H38.7207V18.082ZM38.9648 14.9375H39.7852L47.9297 29H47.1094L38.9648 14.9375ZM40.625 14.9375H41.4551L49.5898 29H48.75L40.625 14.9375ZM42.2754 14.9375H43.0957L50.5176 27.7793V14.9375H51.2207V29H50.3906L42.2754 14.9375ZM38.0176 16.1484V29H37.3145V14.9375H38.1543L46.2695 29H45.459L38.0176 16.1484ZM58.8754 24.7812V19.1562C58.8754 19.1562 60.1742 19.1562 62.7719 19.1562C63.4945 19.1562 64.113 19.4297 64.6273 19.9766C65.1482 20.5234 65.4086 21.181 65.4086 21.9492C65.4086 22.7435 65.1514 23.4141 64.6371 23.9609C64.1228 24.5078 63.501 24.7812 62.7719 24.7812H58.8754ZM59.5785 24.0781H62.7719C63.2992 24.0781 63.7484 23.873 64.1195 23.4629C64.4971 23.0527 64.6859 22.5482 64.6859 21.9492C64.6859 21.3763 64.4971 20.8848 64.1195 20.4746C63.7484 20.0645 63.2992 19.8594 62.7719 19.8594H59.5785V24.0781ZM58.1723 25.4844H62.7719C63.6964 25.4844 64.4874 25.1426 65.1449 24.459C65.8025 23.7689 66.1312 22.9323 66.1312 21.9492C66.1312 20.9857 65.7992 20.1621 65.1352 19.4785C64.4776 18.7949 63.6898 18.4531 62.7719 18.4531H58.1723V25.4844ZM57.4691 26.1875V17.75H62.7719C63.8852 17.75 64.8422 18.1634 65.643 18.9902C66.4503 19.8105 66.8539 20.7969 66.8539 21.9492C66.8539 23.1276 66.4535 24.1302 65.6527 24.957C64.852 25.7773 63.8917 26.1875 62.7719 26.1875H57.4691ZM56.766 26.8906H62.7719C63.6312 26.8906 64.4288 26.6725 65.1645 26.2363C65.9001 25.8001 66.4861 25.2012 66.9223 24.4395C67.3585 23.6777 67.5766 22.8477 67.5766 21.9492C67.5766 21.0703 67.3585 20.2533 66.9223 19.498C66.4861 18.7428 65.8969 18.1471 65.1547 17.7109C64.419 17.2682 63.6247 17.0469 62.7719 17.0469H56.766V26.8906ZM56.0629 27.5938V16.3438H62.7719C63.7549 16.3438 64.6697 16.5944 65.516 17.0957C66.3689 17.597 67.046 18.2806 67.5473 19.1465C68.0486 20.0059 68.2992 20.9401 68.2992 21.9492C68.2992 22.9714 68.0486 23.9186 67.5473 24.791C67.046 25.6569 66.3689 26.3405 65.516 26.8418C64.6697 27.3431 63.7549 27.5938 62.7719 27.5938H56.0629ZM55.3598 28.2969H62.7719C63.8852 28.2969 64.9203 28.0169 65.8773 27.457C66.8344 26.8906 67.5961 26.1191 68.1625 25.1426C68.7354 24.166 69.0219 23.1016 69.0219 21.9492C69.0219 20.8164 68.7354 19.765 68.1625 18.7949C67.5961 17.8184 66.8311 17.0501 65.8676 16.4902C64.9105 15.9238 63.8786 15.6406 62.7719 15.6406H55.3598V28.2969ZM62.7719 29H54.6566V14.9375H62.7719C64.0089 14.9375 65.1612 15.2533 66.2289 15.8848C67.3031 16.5098 68.156 17.3626 68.7875 18.4434C69.4255 19.5176 69.7445 20.6862 69.7445 21.9492C69.7445 22.9062 69.5557 23.821 69.1781 24.6934C68.807 25.5658 68.3057 26.3177 67.6742 26.9492C67.0492 27.5742 66.307 28.0723 65.4477 28.4434C64.5883 28.8145 63.6964 29 62.7719 29ZM79.3816 22.3105H78.2684C76.9012 22.3105 75.8497 22.0339 75.1141 21.4805C74.3784 20.9206 74.0105 20.1523 74.0105 19.1758C74.0105 18.2643 74.4435 17.5059 75.3094 16.9004C76.1753 16.2884 77.3895 15.9824 78.952 15.9824C79.9936 15.9824 80.9637 16.1257 81.8621 16.4121C82.7671 16.6986 83.519 17.1022 84.118 17.623L83.5711 18.0625C83.0372 17.6263 82.3667 17.2878 81.5594 17.0469C80.7521 16.806 79.8829 16.6855 78.952 16.6855C77.5783 16.6855 76.5268 16.9199 75.7977 17.3887C75.075 17.8574 74.7137 18.4531 74.7137 19.1758C74.7137 19.957 75.0099 20.5592 75.6023 20.9824C76.2013 21.3991 77.09 21.6074 78.2684 21.6074H79.3426C80.7293 21.6074 81.7905 21.8874 82.5262 22.4473C83.2684 23.0007 83.6395 23.7656 83.6395 24.7422C83.6395 25.6536 83.2065 26.4154 82.3406 27.0273C81.4747 27.6328 80.2605 27.9355 78.698 27.9355C77.6564 27.9355 76.6831 27.7923 75.7781 27.5059C74.8797 27.2194 74.131 26.8158 73.532 26.2949L74.0789 25.8555C74.6128 26.2917 75.2833 26.6302 76.0906 26.8711C76.8979 27.112 77.7671 27.2324 78.698 27.2324C80.0717 27.2324 81.1199 26.998 81.8426 26.5293C82.5717 26.0605 82.9363 25.4648 82.9363 24.7422C82.9363 23.9609 82.6368 23.362 82.0379 22.9453C81.4454 22.5221 80.56 22.3105 79.3816 22.3105ZM79.3816 23.7168H78.2684C76.4585 23.7168 75.062 23.3066 74.0789 22.4863C73.0958 21.6595 72.6043 20.556 72.6043 19.1758C72.6043 18.5443 72.7443 17.9518 73.0242 17.3984C73.3042 16.8451 73.7046 16.36 74.2254 15.9434C74.7527 15.5202 75.4233 15.1882 76.2371 14.9473C77.0509 14.6999 77.9559 14.5762 78.952 14.5762C80.2085 14.5762 81.3836 14.7682 82.4773 15.1523C83.5711 15.5299 84.4825 16.0605 85.2117 16.7441L84.6453 17.1641C83.9812 16.5651 83.1512 16.1029 82.1551 15.7773C81.159 15.4453 80.0913 15.2793 78.952 15.2793C77.1941 15.2793 75.8139 15.6504 74.8113 16.3926C73.8087 17.1348 73.3074 18.0625 73.3074 19.1758C73.3074 20.3542 73.7371 21.2884 74.5965 21.9785C75.4559 22.6686 76.6798 23.0137 78.2684 23.0137H79.3426C81.2697 23.0137 82.2332 23.5898 82.2332 24.7422C82.2332 25.263 81.937 25.6927 81.3445 26.0312C80.7586 26.3633 79.8764 26.5293 78.698 26.5293C77.8712 26.5293 77.103 26.4349 76.3934 26.2461C75.6837 26.0508 75.0978 25.7741 74.6355 25.416L75.1922 24.9863C76.006 25.5462 77.1746 25.8262 78.698 25.8262C79.6746 25.8262 80.3908 25.7253 80.8465 25.5234C81.3022 25.3216 81.5301 25.0612 81.5301 24.7422C81.5301 24.3711 81.3706 24.1074 81.0516 23.9512C80.7325 23.7949 80.1759 23.7168 79.3816 23.7168ZM79.3816 20.9043H78.2684C76.3673 20.9043 75.4168 20.3281 75.4168 19.1758C75.4168 18.6549 75.7098 18.2285 76.2957 17.8965C76.8881 17.5579 77.7736 17.3887 78.952 17.3887C79.7788 17.3887 80.547 17.4863 81.2566 17.6816C81.9663 17.8704 82.5522 18.1439 83.0145 18.502L82.4578 18.9316C81.644 18.3717 80.4754 18.0918 78.952 18.0918C77.9754 18.0918 77.2592 18.1927 76.8035 18.3945C76.3478 18.5964 76.1199 18.8568 76.1199 19.1758C76.1199 19.5469 76.2794 19.8105 76.5984 19.9668C76.9174 20.123 77.4741 20.2012 78.2684 20.2012H79.3816C81.1915 20.2012 82.588 20.6146 83.5711 21.4414C84.5542 22.2617 85.0457 23.362 85.0457 24.7422C85.0457 25.3737 84.9057 25.9661 84.6258 26.5195C84.3458 27.0729 83.9422 27.5612 83.4148 27.9844C82.894 28.401 82.2267 28.7331 81.4129 28.9805C80.5991 29.2214 79.6941 29.3418 78.698 29.3418C77.4415 29.3418 76.2664 29.153 75.1727 28.7754C74.0789 28.3913 73.1674 27.8574 72.4383 27.1738L73.0047 26.7539C73.6687 27.3529 74.4988 27.8184 75.4949 28.1504C76.491 28.4759 77.5587 28.6387 78.698 28.6387C80.4559 28.6387 81.8361 28.2676 82.8387 27.5254C83.8413 26.7832 84.3426 25.8555 84.3426 24.7422C84.3426 23.5638 83.9129 22.6296 83.0535 21.9395C82.1941 21.2493 80.9702 20.9043 79.3816 20.9043Z" fill="#ECECEF"/>
</svg>
